<svg width="32" height="40" viewBox="0 0 32 40" fill="none" xmlns="http://www.w3.org/2000/svg">
<path d="M17.1 1.3C17.1 1.1 16.7 1 16.3 1C15.8 1 15.5 1.1 15.5 1.3V8.9H17.2L17.1 1.3Z" fill="#254234" stroke="#E09E42" stroke-width="0.5" stroke-miterlimit="10" stroke-linecap="round" stroke-linejoin="round"/>
<path d="M1.59998 8.90002L26.3 6.40002V35.9L1 37.5L1.59998 8.90002Z" fill="#254234" stroke="#E09E42" stroke-width="0.5" stroke-miterlimit="10" stroke-linecap="round" stroke-linejoin="round"/>
<path d="M26.3 6.40002L31.2 7.70001V37.4L26.3 35.9V6.40002Z" fill="#254234" stroke="#E09E42" stroke-width="0.5" stroke-miterlimit="10" stroke-linecap="round" stroke-linejoin="round"/>
<path d="M1 37.5L26.3 35.9L31.2 37.4L5.69995 39L1 37.5Z" fill="#254234" stroke="#E09E42" stroke-width="0.5" stroke-miterlimit="10" stroke-linecap="round" stroke-linejoin="round"/>
<path d="M30.7 8.60004V12.5L26.8 16.2V12.4L30.7 8.60004Z" fill="#254234" stroke="#E09E42" stroke-width="0.5" stroke-miterlimit="10" stroke-linecap="round" stroke-linejoin="round"/>
<path d="M26.8 17.1V21.1L30.7 26.8V23L26.8 17.1Z" fill="#254234" stroke="#E09E42" stroke-width="0.5" stroke-miterlimit="10" stroke-linecap="round" stroke-linejoin="round"/>
<path d="M28.5 17.4C28.5 18.8 29 19.8 29.6 19.8C30.2 19.8 30.7 18.7 30.7 17.4C30.7 16 30.2 15 29.6 15C29 15 28.5 16 28.5 17.4Z" fill="#254234" stroke="#E09E42" stroke-width="0.5" stroke-miterlimit="10" stroke-linecap="round" stroke-linejoin="round"/>
<path d="M30.7 27.7V31.6L26.8 35.4V31.5L30.7 27.7Z" fill="#254234" stroke="#E09E42" stroke-width="0.5" stroke-miterlimit="10" stroke-linecap="round" stroke-linejoin="round"/>
<path d="M23.945 23.5383C22.9821 30.2538 17.5505 34.9625 11.8779 34.1492C6.20529 33.3359 2.31546 27.2908 3.27828 20.5753C4.2411 13.8598 9.67272 9.15119 15.3453 9.96449C21.0179 10.7778 24.9078 16.8229 23.945 23.5383Z" fill="#254234" stroke="#E09E42" stroke-width="0.5"/>
<path d="M14 29.4V33.8C13.6 33.8 13.2 33.9 12.8 33.8V29.3H14V29.4Z" fill="#254234" stroke="#E09E42" stroke-width="0.5" stroke-miterlimit="10" stroke-linecap="round" stroke-linejoin="round"/>
<path d="M23.7 22.1L19.8 22.4L19.7 21.2L23.7 20.9C23.7 21.3 23.7 21.7 23.7 22.1Z" fill="#254234" stroke="#E09E42" stroke-width="0.5" stroke-miterlimit="10" stroke-linecap="round" stroke-linejoin="round"/>
<path d="M7.59998 22.2V23.4H3.59998C3.59998 23 3.59998 22.6 3.59998 22.2H7.59998Z" fill="#254234" stroke="#E09E42" stroke-width="0.5" stroke-miterlimit="10" stroke-linecap="round" stroke-linejoin="round"/>
<path d="M14.3 10.4V15H13.1V10.5C13.5 10.4 13.9 10.4 14.3 10.4Z" fill="#254234" stroke="#E09E42" stroke-width="0.5" stroke-miterlimit="10" stroke-linecap="round" stroke-linejoin="round"/>
<path d="M10.6 28.8L8.5 32.5C8.3 32.4 8.10002 32.2 7.90002 32.1L10 28.4L10.6 28.8Z" fill="#254234" stroke="#E09E42" stroke-width="0.5" stroke-miterlimit="10" stroke-linecap="round" stroke-linejoin="round"/>
<path d="M8.59998 26.4L5.09998 28.8C4.99998 28.6 4.89995 28.3 4.69995 28.1L8.09998 25.7L8.59998 26.4Z" fill="#254234" stroke="#E09E42" stroke-width="0.5" stroke-miterlimit="10" stroke-linecap="round" stroke-linejoin="round"/>
<path d="M8.69995 18.6L8.30005 19.3L4.80005 17.1C4.90005 16.9 4.99998 16.6 5.09998 16.4L8.69995 18.6Z" fill="#254234" stroke="#E09E42" stroke-width="0.5" stroke-miterlimit="10" stroke-linecap="round" stroke-linejoin="round"/>
<path d="M10.9 16.1L10.2 16.4L8.40002 12.4C8.60002 12.2 8.8 12.1 9 11.9L10.9 16.1Z" fill="#254234" stroke="#E09E42" stroke-width="0.5" stroke-miterlimit="10" stroke-linecap="round" stroke-linejoin="round"/>
<path d="M19.3 12L17.2 15.9L16.5 15.5L18.6 11.5C18.9 11.7 19.1 11.9 19.3 12Z" fill="#254234" stroke="#E09E42" stroke-width="0.5" stroke-miterlimit="10" stroke-linecap="round" stroke-linejoin="round"/>
<path d="M22.6 16.2L19.2 18.6L18.8 18L22.3 15.6C22.4 15.8 22.5 16 22.6 16.2Z" fill="#254234" stroke="#E09E42" stroke-width="0.5" stroke-miterlimit="10" stroke-linecap="round" stroke-linejoin="round"/>
<path d="M22.5 27.3C22.4 27.5 22.3 27.8 22.2 28L18.8 25.9L19.2 25.2L22.5 27.3Z" fill="#254234" stroke="#E09E42" stroke-width="0.5" stroke-miterlimit="10" stroke-linecap="round" stroke-linejoin="round"/>
<path d="M18.5 32.1C18.3 32.3 18.1 32.4 17.8 32.5L15.9 28.7L16.6 28.4L18.5 32.1Z" fill="#254234" stroke="#E09E42" stroke-width="0.5" stroke-miterlimit="10" stroke-linecap="round" stroke-linejoin="round"/>
</svg>
