<svg width="70" height="70" viewBox="0 0 70 70" fill="none" xmlns="http://www.w3.org/2000/svg">
<path opacity="0.8" d="M35 68C53.2254 68 68 53.2254 68 35C68 16.7746 53.2254 2 35 2C16.7746 2 2 16.7746 2 35C2 53.2254 16.7746 68 35 68Z" fill="black"/>
<path d="M35 68C53.2254 68 68 53.2254 68 35C68 16.7746 53.2254 2 35 2C16.7746 2 2 16.7746 2 35C2 53.2254 16.7746 68 35 68Z" stroke="white" stroke-width="2" stroke-miterlimit="10"/>
<path d="M18.9353 34.9648C18.9353 30.5082 18.9703 26.0398 18.9119 21.5832C18.8886 20.1715 20.1719 18.8998 21.5719 18.9232C26.2503 18.9815 30.9169 18.9698 35.5953 18.9232C36.8669 18.9115 38.2203 20.0432 38.2203 21.5482C38.1969 30.5315 38.1969 39.5148 38.2203 48.4982C38.2203 49.9798 36.8553 51.0998 35.6303 51.0882C30.9169 51.0415 26.2036 51.0415 21.4903 51.0882C20.1719 51.0998 18.9003 49.8398 18.9119 48.4982C18.9703 43.9832 18.9353 39.4798 18.9353 34.9648ZM36.6103 43.0498C36.6103 42.8865 36.6103 42.7698 36.6103 42.6415C36.6103 35.5832 36.6103 28.5248 36.6103 21.4665C36.6103 20.7082 36.4119 20.5215 35.6419 20.5215C30.9286 20.5215 26.2269 20.5215 21.5136 20.5215C20.6969 20.5215 20.5103 20.6965 20.5103 21.5132C20.5103 28.5598 20.5103 35.6065 20.5103 42.6532C20.5103 42.7815 20.5219 42.9215 20.5336 43.0615C25.9003 43.0498 31.2203 43.0498 36.6103 43.0498ZM20.5103 44.6598C20.5103 45.9898 20.5103 47.2965 20.5103 48.6032C20.5103 49.2682 20.7319 49.4898 21.3853 49.4898C26.1686 49.4898 30.9519 49.4898 35.7353 49.4898C36.3769 49.4898 36.5986 49.2682 36.5986 48.6265C36.6103 47.4015 36.5986 46.1648 36.5986 44.9398C36.5986 44.8582 36.5869 44.7765 36.5753 44.6715C31.2319 44.6598 25.9003 44.6598 20.5103 44.6598Z" fill="white"/>
<path d="M51.0653 41.4515C51.0653 43.7965 51.0186 46.1532 51.0769 48.4982C51.1119 49.8282 49.8286 51.1115 48.4986 51.0765C45.8969 51.0182 43.2953 51.0648 40.6936 51.0532C40.1803 51.0532 39.8303 50.7148 39.8303 50.2598C39.8419 49.8165 40.1803 49.4898 40.6703 49.4782C40.7403 49.4782 40.8219 49.4782 40.8919 49.4782C43.4003 49.4782 45.9203 49.4782 48.4286 49.4782C48.5219 49.4782 48.6036 49.4782 48.6969 49.4782C49.2336 49.4665 49.4669 49.2215 49.4786 48.6848C49.4786 48.6148 49.4786 48.5332 49.4786 48.4632C49.4786 43.7732 49.4786 39.0948 49.4786 34.4048C49.4786 33.5648 49.3036 33.3898 48.4636 33.3898C45.9669 33.3898 43.4586 33.3898 40.9619 33.3898C40.8336 33.3898 40.7053 33.4015 40.5886 33.3782C40.1336 33.3315 39.8303 33.0048 39.8186 32.5965C39.8186 32.1765 40.1219 31.8498 40.5653 31.8032C40.6703 31.7915 40.7636 31.7915 40.8686 31.7915C43.3769 31.7915 45.8969 31.8265 48.4053 31.7798C49.8986 31.7565 51.1119 33.0865 51.0653 34.4515C51.0069 36.7848 51.0653 39.1182 51.0653 41.4515Z" fill="white"/>
<path d="M44.1936 23.7998C44.8236 24.4181 45.4069 24.9781 45.9902 25.5498C45.5936 25.9231 45.2319 26.2731 44.8819 26.6115C43.6802 25.4098 42.4436 24.1731 41.2302 22.9598C42.4436 21.7465 43.6802 20.5098 44.9052 19.2848C45.2086 19.5998 45.5586 19.9615 45.9552 20.3698C45.4186 20.9065 44.8236 21.4781 44.1586 22.1431C45.9902 22.1431 47.7169 22.1431 49.4552 22.1431C49.4552 24.3015 49.4552 26.4131 49.4552 28.5481C48.9419 28.5481 48.4402 28.5481 47.8919 28.5481C47.8919 27.8598 47.8919 27.1948 47.8919 26.5298C47.8919 25.7131 47.8919 24.8965 47.8919 24.0798C47.8919 23.8815 47.8802 23.7415 47.6236 23.7415C46.5386 23.7531 45.4652 23.7415 44.3802 23.7531C44.3452 23.7415 44.3102 23.7648 44.1936 23.7998Z" fill="white"/>
<path d="M46.2703 41.4165C46.2703 40.9265 46.2587 40.4365 46.2703 39.9465C46.282 39.3982 46.597 39.0365 47.0637 39.0365C47.5303 39.0365 47.857 39.3865 47.8687 39.9348C47.8803 40.9382 47.8803 41.9415 47.8687 42.9448C47.8687 43.5048 47.542 43.8315 47.0637 43.8315C46.597 43.8315 46.2937 43.4932 46.282 42.9565C46.2587 42.4432 46.2703 41.9298 46.2703 41.4165Z" fill="white"/>
<path d="M28.5602 23.7298C28.0702 23.7298 27.5802 23.7414 27.0902 23.7298C26.5186 23.7181 26.1919 23.4264 26.1802 22.9481C26.1686 22.4464 26.5069 22.1431 27.1019 22.1314C28.0936 22.1198 29.0852 22.1198 30.0769 22.1314C30.6252 22.1314 30.9869 22.4581 30.9752 22.9248C30.9752 23.3914 30.6136 23.7064 30.0652 23.7181C29.5519 23.7414 29.0502 23.7298 28.5602 23.7298Z" fill="white"/>
<path d="M28.5718 47.8565C28.2918 47.8565 28.0235 47.8682 27.7435 47.8565C27.2768 47.8215 26.9618 47.4715 26.9735 47.0515C26.9851 46.6315 27.2885 46.3049 27.7435 46.2815C28.2918 46.2582 28.8401 46.2582 29.3885 46.2815C29.8551 46.3049 30.1701 46.6549 30.1585 47.0865C30.1468 47.4949 29.8435 47.8215 29.3885 47.8565C29.1201 47.8799 28.8401 47.8565 28.5718 47.8565Z" fill="white"/>
</svg>
